<svg width="24" height="18" viewBox="0 0 24 18" fill="none" xmlns="http://www.w3.org/2000/svg">
<path d="M19 15H6C3.23858 15 1 12.7614 1 10C1 7.34996 3.06162 5.18137 5.6685 5.01074C6.00446 4.30038 6.45733 3.65576 7.00088 3.10107M19 15L5 1M19 15L21 17M10 1.28988C10.6337 1.10128 11.305 1 12 1C15.5267 1 18.4442 3.60802 18.9292 7.00062C18.9528 7.00021 18.9773 7 19.001 7C21.2101 7 22.9995 8.79086 22.9995 11C22.9995 11.9459 22.672 12.8152 22.123 13.5" stroke="white" stroke-width="2" stroke-linecap="round" stroke-linejoin="round"/>
</svg>
